<svg xmlns="http://www.w3.org/2000/svg" width="256" height="366" fill="none" viewBox="0 0 256 366"><path fill="#fff" d="M182.979 9.317C185.312 13.324 186.923 18.148 189.486 27.796L214.376 113.976C197.466 107.605 179.18 104.446 160.5 104.446C141.353 104.446 122.983 107.683 106.209 113.976L131.099 27.796C133.662 18.148 135.273 13.324 137.606 9.317C139.939 5.31 142.762 1.953 146.5 0.976C150.238 0 154.262 0 162.5 0C170.738 0 174.762 0 178.5 0.976C182.238 1.953 185.061 5.31 187.394 9.317H182.979Z"/><path fill="#FF5D01" d="M156.5 366C118.5 366 69 349.5 46.5 311C20.5 267 48.5 208 93.5 202.5C123.5 199 150.5 219 156.5 248.5C162.5 219 189.5 199 219.5 202.5C264.5 208 292.5 267 266.5 311C244 349.5 194.5 366 156.5 366Z"/></svg>